<mxfile host="app.diagrams.net" modified="2021-09-14T03:17:50.915Z" agent="5.0 (Windows NT 10.0; Win64; x64) AppleWebKit/537.36 (KHTML, like Gecko) Chrome/93.0.4577.63 Safari/537.36 Edg/93.0.961.44" etag="0orQOncrBcKNt1nQxeVT" version="15.2.1" type="github">
  <diagram id="XRQRLr1y-RmOArxNJJhW" name="Page-1">
    <mxGraphModel dx="370" dy="208" grid="1" gridSize="10" guides="1" tooltips="1" connect="1" arrows="1" fold="1" page="1" pageScale="1" pageWidth="827" pageHeight="1169" math="0" shadow="0">
      <root>
        <mxCell id="0" />
        <mxCell id="1" parent="0" />
        <mxCell id="OJ2yIAOd7H9yJqSHl4zN-1" value="" style="endArrow=block;html=1;strokeColor=#2185BA;endFill=1;" edge="1" parent="1">
          <mxGeometry width="50" height="50" relative="1" as="geometry">
            <mxPoint x="390" y="290" as="sourcePoint" />
            <mxPoint x="400" y="160" as="targetPoint" />
          </mxGeometry>
        </mxCell>
        <mxCell id="OJ2yIAOd7H9yJqSHl4zN-2" value="" style="endArrow=blockThin;html=1;strokeColor=#007D65;endFill=1;" edge="1" parent="1">
          <mxGeometry width="50" height="50" relative="1" as="geometry">
            <mxPoint x="390" y="290" as="sourcePoint" />
            <mxPoint x="350" y="230" as="targetPoint" />
          </mxGeometry>
        </mxCell>
        <mxCell id="OJ2yIAOd7H9yJqSHl4zN-3" value="" style="endArrow=blockThin;html=1;strokeColor=#007D65;endFill=1;" edge="1" parent="1">
          <mxGeometry width="50" height="50" relative="1" as="geometry">
            <mxPoint x="390" y="290" as="sourcePoint" />
            <mxPoint x="430" y="240" as="targetPoint" />
          </mxGeometry>
        </mxCell>
      </root>
    </mxGraphModel>
  </diagram>
</mxfile>
